<svg width="1200" height="1400" viewBox="0 0 1200 1400" fill="none" xmlns="http://www.w3.org/2000/svg">
<rect width="1200" height="1400" rx="64" fill="#EEF4FC"/>
<rect x="80" y="72" width="1040" height="1256" rx="48" fill="url(#paint0_linear)"/>
<ellipse cx="677" cy="339" rx="242" ry="186" fill="#D8E5F6"/>
<ellipse cx="403" cy="1076" rx="282" ry="198" fill="#F5F8FD"/>
<path d="M711 309C611 368 543 487 543 630V1124H821V716C821 588 771 407 711 309Z" fill="#D4C4B6"/>
<path d="M567 1124C580 1021 629 934 711 874C795 936 841 1021 855 1124H567Z" fill="#BDAB9C"/>
<path d="M631 451C631 398 668 356 714 356C760 356 797 398 797 451V597H631V451Z" fill="#F8FAFE"/>
<text x="102" y="1188" fill="#5D6B7D" font-family="Georgia, serif" font-size="42" letter-spacing="0.12em">AURELLE BODY</text>
<text x="102" y="1246" fill="#7C8B9C" font-family="Arial, sans-serif" font-size="24" letter-spacing="0.2em">PREMIUM PLACEHOLDER VISUAL</text>
<defs>
<linearGradient id="paint0_linear" x1="145" y1="72" x2="1050" y2="1328" gradientUnits="userSpaceOnUse">
<stop stop-color="#FDFEFF"/>
<stop offset="1" stop-color="#E5EDF8"/>
</linearGradient>
</defs>
</svg>
